M48
; DRILL file {KiCad 8.0.4} date 2024-11-09T11:53:40-0800
; FORMAT={-:-/ absolute / inch / decimal}
; #@! TF.CreationDate,2024-11-09T11:53:40-08:00
; #@! TF.GenerationSoftware,Kicad,Pcbnew,8.0.4
; #@! TF.FileFunction,Plated,1,4,PTH
FMAT,2
INCH
; #@! TA.AperFunction,Plated,PTH,ViaDrill
T1C0.0118
%
G90
G05
T1
X4.9705Y-4.6083
X4.9705Y-4.6378
X4.9764Y-5.2992
X4.9764Y-5.3287
X5.0Y-4.6083
X5.0Y-4.6378
X5.0059Y-5.2992
X5.0059Y-5.3287
X5.0345Y-4.3889
X5.0345Y-5.0787
X5.0582Y-4.3316
X5.0582Y-5.0197
X5.1417Y-4.4265
X5.1417Y-4.4501
X5.1527Y-4.6732
X5.1527Y-4.7205
X5.1614Y-4.4055
X5.1614Y-4.4685
X5.1732Y-5.2165
X5.1732Y-5.2795
X5.1763Y-4.6969
X5.1994Y-5.2349
X5.1994Y-5.2585
X5.1999Y-4.6969
X5.2235Y-4.6732
X5.2235Y-4.7205
X5.2244Y-5.2165
X5.2244Y-5.2795
X5.2323Y-4.5236
X5.2323Y-4.5906
X5.2539Y-4.5446
X5.2539Y-4.5682
X5.2594Y-4.0192
X5.2717Y-4.5236
X5.2717Y-4.5906
X5.3307Y-4.3701
X5.4164Y-4.6299
X5.4449Y-3.9291
X5.4449Y-3.9587
X5.4479Y-4.6299
X5.4569Y-4.9379
X5.4597Y-5.5984
X5.4685Y-4.7323
X5.4783Y-3.9291
X5.4783Y-3.9587
X5.4912Y-4.5512
X5.4921Y-4.6339
X5.4991Y-4.1693
X5.5188Y-4.1496
X5.5208Y-5.6201
X5.5424Y-4.1496
X5.5621Y-4.1693
X5.5709Y-4.6575
X5.5739Y-4.7402
X5.5739Y-4.7795
X5.5739Y-4.8425
X5.5739Y-4.9055
X5.5739Y-4.9764
X5.5936Y-5.2874
X5.5971Y-5.3184
X5.6053Y-5.1043
X5.6138Y-5.3351
X5.633Y-5.2116
X5.6408Y-5.3425
X5.6437Y-5.127
X5.6476Y-4.8425
X5.6527Y-4.9764
X5.6535Y-4.6575
X5.6575Y-5.4409
X5.6763Y-5.4173
X5.6959Y-4.5079
X5.696Y-3.9961
X5.6969Y-4.7598
X5.6999Y-5.4173
X5.7156Y-4.7874
X5.7196Y-4.8819
X5.7205Y-5.4409
X5.7255Y-4.9941
X5.7298Y-5.0732
X5.7298Y-5.1693
X5.7373Y-4.0394
X5.7382Y-5.6516
X5.7382Y-5.6811
X5.757Y-4.0177
X5.759Y-5.0276
X5.7677Y-5.6516
X5.7677Y-5.6811
X5.779Y-4.5939
X5.7992Y-5.3307
X5.7992Y-5.3622
X5.7992Y-5.3858
X5.7992Y-5.4173
X5.8062Y-4.4528
X5.8062Y-5.5779
X5.8074Y-4.5343
X5.8086Y-5.0843
X5.8268Y-4.689
X5.8268Y-4.75
X5.8268Y-4.811
X5.8268Y-4.872
X5.8268Y-4.9331
X5.8653Y-4.4488
X5.8731Y-4.2835
X5.8731Y-5.0866
X5.8731Y-5.1693
X5.878Y-4.689
X5.878Y-4.75
X5.878Y-4.811
X5.878Y-4.872
X5.878Y-4.9331
X5.881Y-4.5827
X5.8852Y-4.4341
X5.8923Y-4.2603
X5.9007Y-4.3898
X5.9019Y-4.4174
X5.909Y-4.2436
X5.9094Y-5.5276
X5.9094Y-5.5551
X5.9094Y-5.5827
X5.9134Y-5.6535
X5.9134Y-5.687
X5.9134Y-5.7185
X5.9134Y-5.752
X5.9291Y-4.689
X5.9291Y-4.75
X5.9291Y-4.811
X5.9291Y-4.872
X5.9291Y-4.9331
X5.9342Y-5.0689
X5.9361Y-4.2165
X5.9396Y-4.3312
X5.9416Y-5.1693
X5.9449Y-5.5276
X5.9563Y-4.3145
X5.9656Y-5.0689
X5.9755Y-4.2953
X5.9803Y-4.689
X5.9803Y-4.75
X5.9803Y-4.811
X5.9803Y-4.872
X5.9803Y-4.9331
X5.981Y-5.1693
X5.9843Y-5.622
X5.9873Y-4.4302
X5.9961Y-5.7835
X6.0109Y-4.4302
X6.0157Y-5.4606
X6.0204Y-5.1693
X6.0227Y-4.3346
X6.0227Y-4.5827
X6.0236Y-4.2165
X6.0267Y-4.4055
X6.0267Y-4.4567
X6.0276Y-4.689
X6.0276Y-4.75
X6.0276Y-4.811
X6.0276Y-4.872
X6.0276Y-4.9331
X6.0315Y-5.7835
X6.0472Y-5.5079
X6.0503Y-4.3346
X6.061Y-5.3898
X6.061Y-5.4252
X6.0739Y-4.3346
X6.0748Y-4.689
X6.0748Y-4.75
X6.0748Y-4.811
X6.0748Y-4.872
X6.0748Y-4.9331
X6.0787Y-5.2835
X6.0897Y-5.1693
X6.0925Y-5.3898
X6.0925Y-5.4252
X6.0945Y-5.5709
X6.1054Y-4.3346
X6.1233Y-4.557
X6.126Y-5.5709
X6.1299Y-5.1693
X6.1386Y-5.6803
X6.1448Y-4.4528
X6.1693Y-5.1693
X6.1772Y-5.5709
X6.1802Y-4.7904
X6.1822Y-4.9902
X6.1881Y-4.874
X6.189Y-4.3189
X6.189Y-4.4803
X6.2008Y-5.6407
X6.2087Y-5.5709
X6.2087Y-5.7835
X6.2156Y-4.7717
X6.2205Y-5.3839
X6.2205Y-5.4213
X6.2235Y-4.8346
X6.2235Y-4.9449
X6.2267Y-4.6724
X6.2441Y-4.4843
X6.2441Y-5.7835
X6.248Y-5.3839
X6.248Y-5.4213
X6.2598Y-5.5709
X6.2598Y-5.6181
X6.2756Y-5.3839
X6.2756Y-5.4213
X6.2913Y-5.5709
X6.3051Y-5.3839
X6.3051Y-5.4213
X6.3062Y-4.563
X6.3062Y-4.6024
X6.3062Y-4.6654
X6.3062Y-4.7559
X6.3062Y-4.7953
X6.3062Y-4.8346
X6.3062Y-4.874
X6.3062Y-4.9449
X6.3062Y-5.0079
X6.315Y-4.311
X6.3327Y-5.7106
X6.3327Y-5.7402
X6.3338Y-4.6457
X6.3534Y-4.7265
X6.3622Y-4.3543
X6.3622Y-5.7106
X6.3622Y-5.7402
X6.3771Y-4.7087
X6.4007Y-4.689
X6.4252Y-4.6378
X6.4331Y-5.7244
X6.4479Y-4.8622
X6.4479Y-4.8937
X6.4479Y-4.9173
X6.4479Y-4.9488
X6.4528Y-4.6378
X6.4528Y-4.7205
X6.4606Y-4.4764
X6.4783Y-5.1752
X6.4783Y-5.2028
X6.4803Y-4.7402
X6.5039Y-5.1752
X6.5039Y-5.2028
X6.5197Y-4.8091
X6.5197Y-4.8764
X6.5329Y-4.8307
X6.5329Y-4.8543
X6.5453Y-5.0039
X6.5453Y-5.0335
X6.5551Y-4.5315
X6.5748Y-5.0039
X6.5748Y-5.0335
X6.5925Y-5.4705
X6.5925Y-5.5
X6.6024Y-5.0039
X6.6024Y-5.0335
X6.622Y-4.8898
X6.622Y-4.9134
X6.622Y-5.4705
X6.622Y-5.5
X6.6299Y-4.8622
X6.6299Y-4.9409
X6.6299Y-5.0039
X6.6299Y-5.0335
X6.6654Y-5.4685
X6.6732Y-5.1496
X6.685Y-5.2323
X6.6929Y-5.4685
X6.6969Y-4.5512
X6.6969Y-4.6575
X6.6969Y-4.9961
X6.6969Y-5.1024
X6.7008Y-5.1969
X6.7047Y-5.4094
X6.7047Y-5.4409
X6.7751Y-5.343
M30
